<?xml version="1.0" encoding="iso-8859-1"?>
<!-- Generator: Adobe Illustrator 19.0.0, SVG Export Plug-In . SVG Version: 6.00 Build 0)  -->
<svg version="1.1" id="Capa_1" xmlns="http://www.w3.org/2000/svg" xmlns:xlink="http://www.w3.org/1999/xlink" x="0px" y="0px"
	 viewBox="0 0 512 512" style="enable-background:new 0 0 512 512;" xml:space="preserve">
<path style="fill:#57555C;" d="M91,241c-49.501,0-91,40.499-91,90c0,49.499,41.499,90,91,90s90-40.501,90-90
	C181,281.499,140.501,241,91,241z M91,391c-32.999,0-61-27.001-61-60c0-33.001,28.001-60,61-60s60,26.999,60,60
	C151,363.999,123.999,391,91,391z"/>
<path style="fill:#3C3A41;" d="M422,241c-49.501,0-90,40.499-90,90c0,49.499,40.499,90,90,90s90-40.501,90-90
	C512,281.499,471.501,241,422,241z M422,391c-32.999,0-60-27.001-60-60c0-33.001,27.001-60,60-60s60,26.999,60,60
	C482,363.999,454.999,391,422,391z"/>
<g>
	<path style="fill:#FD3C65;" d="M351.799,204.699l-81.099,110.7c-4.799,6.899-14.099,8.401-21,3.3
		c-6.599-4.799-8.099-14.099-3.3-20.7L310.101,211H174.699l-58.2,105H211c8.401,0,15,6.599,15,15c0,8.399-6.599,15-15,15H91
		c-5.4,0-10.201-2.701-12.9-7.5c-2.701-4.501-2.701-10.201-0.3-14.7l75-135c2.701-4.801,7.8-7.8,13.2-7.8h173.5
		c5.7,0,10.8,2.999,13.5,8.099C355.401,194.2,355.101,200.2,351.799,204.699z"/>
	<path style="fill:#FD3C65;" d="M226.439,319.765c-5.273,0-10.386-2.783-13.125-7.72L152.89,203.28
		c-1.245-2.227-1.89-4.731-1.89-7.28v-60c0-8.291,6.709-15,15-15s15,6.709,15,15v56.118l58.535,105.366
		c4.028,7.236,1.421,16.362-5.83,20.391C231.405,319.164,228.9,319.765,226.439,319.765z"/>
</g>
<path style="fill:#57555C;" d="M226,151h-90c-8.291,0-15-6.709-15-15s6.709-15,15-15h90c8.291,0,15,6.709,15,15S234.291,151,226,151
	z"/>
<path style="fill:#E50027;" d="M340.555,121L324.5,106l-17.054,15l100.961,216.343c3.479,7.438,12.353,10.772,19.937,7.251
	c7.515-3.501,10.752-12.437,7.251-19.937L340.555,121z"/>
<path style="fill:#3C3A41;" d="M394.578,91H317c-5.127,0-9.902,2.622-12.656,6.943s-3.105,9.756-0.938,14.399l4.039,8.657h33.109
	h54.023c13.242,0,20.078,16.132,10.605,25.605l-8.789,8.789c-5.859,5.859-5.859,15.352,0,21.211s15.352,5.859,21.211,0l8.789-8.789
	C454.626,139.585,434.486,91,394.578,91z"/>
<path style="fill:#E50027;" d="M351.799,204.699l-81.099,110.7c-4.799,6.899-14.099,8.401-21,3.3
	c-6.599-4.799-8.099-14.099-3.3-20.7L310.101,211H241v-30h98.5c5.7,0,10.8,2.999,13.5,8.099
	C355.401,194.2,355.101,200.2,351.799,204.699z"/>
<path style="fill:#CAE8F9;" d="M241,286c-24.901,0-45,20.099-45,45c0,24.899,20.099,45,45,45s45-20.101,45-45
	C286,306.099,265.901,286,241,286z"/>
<path style="fill:#A4D9F5;" d="M286,331c0,24.899-20.099,45-45,45v-90C265.901,286,286,306.099,286,331z"/>
<g>
</g>
<g>
</g>
<g>
</g>
<g>
</g>
<g>
</g>
<g>
</g>
<g>
</g>
<g>
</g>
<g>
</g>
<g>
</g>
<g>
</g>
<g>
</g>
<g>
</g>
<g>
</g>
<g>
</g>
</svg>
