<?xml version="1.0" encoding="iso-8859-1"?>
<!-- Generator: Adobe Illustrator 19.0.0, SVG Export Plug-In . SVG Version: 6.00 Build 0)  -->
<svg version="1.1" id="Capa_1" xmlns="http://www.w3.org/2000/svg" xmlns:xlink="http://www.w3.org/1999/xlink" x="0px" y="0px"
	 viewBox="0 0 512 512" style="enable-background:new 0 0 512 512;" xml:space="preserve">
<polygon style="fill:#11AD94;" points="125.396,125.397 6.895,242.898 225.16,249.913 226.002,198.814 "/>
<polygon style="fill:#FEA832;" points="269.102,6.897 263.776,220.091 299.961,217.654 386.604,125.397 "/>
<path style="fill:#FEDB41;" d="M269.102,6.897c-3.006-2.272-5.105-6.892-13.103-6.892H15.003c-6.064,0-11.543,3.647-13.857,9.258
	c-2.329,5.61-1.04,12.056,3.252,16.348l198.575,198.575l28.467-1.917l32.336-2.177l6.447-19.343
	C303.405,101.179,271.452,21.309,269.102,6.897z"/>
<polygon style="fill:#E50027;" points="294.287,264.568 299.13,310.681 386.604,386.604 505.104,269.104 "/>
<path style="fill:#FD3C65;" d="M502.738,1.148c-5.581-2.329-12.041-1.04-16.348,3.252L287.816,202.975l3.029,28.835l3.442,32.759
	c9.272,2.438,50.502,20.934,111.711,20.934c53.997,0,96.069-15.644,99.107-16.399c2.272-3.006,6.892-5.105,6.892-13.103
	c0-6.165,0-248.703,0-240.997C511.996,8.941,508.349,3.462,502.738,1.148z"/>
<polygon style="fill:#66BD21;" points="218.612,290.872 125.396,386.604 242.896,505.106 248.909,289.848 "/>
<path style="fill:#98D400;" d="M507.602,486.392L309.027,287.817l-28.145,0.95l-31.972,1.08l-7.134,21.407
	c-33.182,99.569-1.229,179.439,1.121,193.851c3.006,2.272,5.105,6.892,13.103,6.892c6.165,0,248.703,0,240.997,0
	c6.064,0,11.543-3.647,13.857-9.258C513.183,497.13,511.894,490.684,507.602,486.392z"/>
<path style="fill:#19DEC1;" d="M200.746,241.777c-99.571-33.175-179.439-1.23-193.851,1.121c-2.272,3.006-6.892,5.105-6.892,13.103
	v240.997c0,6.064,3.647,11.543,9.258,13.857c1.86,0.776,3.809,1.143,5.742,1.143c3.896,0,7.734-1.523,10.605-4.395l198.575-198.575
	l0.456-27.676l0.52-31.439L200.746,241.777z"/>
<path style="fill:#CAE8F9;" d="M255.999,331C214.647,331,181,297.354,181,256.001s33.647-74.999,74.999-74.999
	s74.999,33.647,74.999,74.999S297.352,331,255.999,331z"/>
<path style="fill:#B7E0F6;" d="M255.999,211.002c-24.814,0-44.999,20.186-44.999,44.999c0,24.814,20.186,44.999,44.999,44.999
	s44.999-20.186,44.999-44.999C300.999,231.188,280.814,211.002,255.999,211.002z"/>
<g>
</g>
<g>
</g>
<g>
</g>
<g>
</g>
<g>
</g>
<g>
</g>
<g>
</g>
<g>
</g>
<g>
</g>
<g>
</g>
<g>
</g>
<g>
</g>
<g>
</g>
<g>
</g>
<g>
</g>
</svg>
